Coordinates
version=1
nRows=16
nColumns=40
inDegrees=yes

Units are S.I. units (second, meters, Newtons, ...)
Angles are in degrees.

endheader
time	pelvis_tilt	pelvis_list	pelvis_rotation	pelvis_tx	pelvis_ty	pelvis_tz	hip_flexion_r	hip_adduction_r	hip_rotation_r	knee_angle_r	knee_angle_r_beta	ankle_angle_r	subtalar_angle_r	mtp_angle_r	hip_flexion_l	hip_adduction_l	hip_rotation_l	knee_angle_l	knee_angle_l_beta	ankle_angle_l	subtalar_angle_l	mtp_angle_l	lumbar_extension	lumbar_bending	lumbar_rotation	arm_flex_r	arm_add_r	arm_rot_r	elbow_flex_r	pro_sup_r	wrist_flex_r	wrist_dev_r	arm_flex_l	arm_add_l	arm_rot_l	elbow_flex_l	pro_sup_l	wrist_flex_l	wrist_dev_l
     28.22842857	     -3.34378377	     -5.27672616	      6.72025304	      0.94608907	      0.91907979	      0.55948936	      2.80251933	      6.50290290	    -18.88655338	     15.65425202	     15.65425202	     18.27243406	     -4.68781014	     -2.78861296	     29.97341635	     -8.56459461	      0.80033215	     20.90114355	     20.90114355	      4.28823586	     -8.72111092	      4.71795070	     -9.51155898	      4.45035236	      3.47009715	     46.19337613	    -17.10713043	     -6.14018378	     89.35107610	     44.71668630	      0.00000000	      0.00000000	    -16.85470572	     -9.10121781	      7.42618090	     31.31528492	     45.03654449	      0.00000000	      0.00000000
     28.24685714	     -3.48543302	     -5.27418264	      7.01817396	      0.94689548	      0.91806111	      0.55662241	      2.45798502	      6.38865052	    -18.98013827	     15.58757578	     15.58757578	     18.55638679	     -4.85734915	     -2.83420449	     29.87379219	     -8.31526768	      0.72226381	     21.13383246	     21.13383246	      3.94123562	     -8.71024575	      4.62684846	     -9.28414070	      4.28268397	      3.51841760	     46.48619785	    -17.04991911	     -6.13980550	     89.49534241	     44.71491778	      0.00000000	      0.00000000	    -16.63154342	     -8.99107821	      7.45556183	     31.45367360	     45.03763399	      0.00000000	      0.00000000
     28.26528571	     -3.57214444	     -5.22705872	      7.29916894	      0.94789330	      0.91713445	      0.55351949	      2.03625878	      6.22421021	    -19.03832246	     15.52710949	     15.52710949	     18.82494288	     -5.04133187	     -2.85700418	     29.77425736	     -8.02972959	      0.71454166	     21.57806894	     21.57806894	      3.65516785	     -8.78824524	      4.41895824	     -9.14199243	      4.09553694	      3.50022376	     46.70115715	    -16.92655763	     -6.12993963	     89.66038544	     44.71187645	      0.00000000	      0.00000000	    -16.29151144	     -8.89691733	      7.48542084	     31.64299044	     45.04037309	      0.00000000	      0.00000000
     28.28371429	     -3.55098925	     -5.25080996	      7.53799347	      0.94915561	      0.91622527	      0.55029266	      1.48860619	      6.17617383	    -18.83805071	     15.45540061	     15.45540061	     19.12429907	     -5.50931551	     -2.60844456	     29.54288681	     -7.81573901	      0.91695405	     21.95046367	     21.95046367	      2.17757569	     -9.67950408	      1.00220006	     -9.14881881	      4.02157332	      3.60460669	     46.69966117	    -16.76303741	     -6.56100519	     90.42436162	     44.74281444	      0.00000000	      0.00000000	    -16.13853732	     -9.07730722	      7.90843211	     32.75167710	     45.02218801	      0.00000000	      0.00000000
     28.30214286	     -3.64193226	     -5.11380799	      7.79960860	      0.95047045	      0.91558782	      0.54663900	      1.04121916	      5.87251842	    -18.92384278	     15.40889106	     15.40889106	     19.33696359	     -5.67682324	     -2.61534626	     29.44730337	     -7.40611756	      1.03051211	     22.50825249	     22.50825249	      2.18930438	     -9.81357302	      0.86087058	     -8.97017291	      3.82727860	      3.56726879	     46.65168243	    -16.61285515	     -6.49099231	     90.39060958	     44.74241174	      0.00000000	      0.00000000	    -15.55781008	     -8.88785039	      7.94445489	     32.97352356	     45.02755711	      0.00000000	      0.00000000
     28.32057143	     -3.58591198	     -5.05387036	      7.96314059	      0.95193913	      0.91506204	      0.54294527	      0.45602356	      5.64865511	    -18.91105548	     15.41446609	     15.41446609	     19.48076101	     -5.77957912	     -2.56945720	     29.51193525	     -7.07934135	      1.40670961	     23.69783140	     23.69783140	      2.40903446	    -10.53835243	      0.61244925	     -8.98839951	      3.67618487	      3.62792206	     46.58618856	    -16.55426882	     -6.52762274	     90.17643173	     44.75441288	      0.00000000	      0.00000000	    -14.89379293	     -8.87133845	      7.96779027	     33.23545838	     45.03886114	      0.00000000	      0.00000000
     28.33900000	     -3.62816672	     -4.88246835	      8.08022038	      0.95350274	      0.91477679	      0.53903367	     -0.07231505	      5.27870235	    -18.91786789	     15.36396418	     15.36396418	     19.55215811	     -5.88944054	     -2.50113991	     29.45073339	     -6.63597208	      1.62991068	     24.52305265	     24.52305265	      2.69911974	    -11.03732526	      0.44051875	     -8.88675649	      3.46853481	      3.66555572	     46.36258267	    -16.41644006	     -6.49723481	     89.93529105	     44.76239297	      0.00000000	      0.00000000	    -14.10057536	     -8.80645034	      7.96221895	     33.57114367	     45.05392018	      0.00000000	      0.00000000
     28.35742857	     -3.64691448	     -4.81595224	      8.12127309	      0.95518576	      0.91460595	      0.53504289	     -0.63216794	      5.01001004	    -18.89762080	     15.29419442	     15.29419442	     19.58358806	     -5.88330302	     -2.38627661	     29.42556254	     -6.23121478	      2.17170194	     25.48134628	     25.48134628	      3.18639809	    -11.99337770	      0.52242003	     -8.75898804	      3.39317885	      3.96912299	     46.13614709	    -16.53713506	     -6.66711322	     89.26168698	     44.79396114	      0.00000000	      0.00000000	    -13.29547985	     -8.75858776	      7.88869025	     34.06650376	     45.08153670	      0.00000000	      0.00000000
     28.37585714	     -3.69592951	     -4.69036225	      8.08557117	      0.95691460	      0.91471775	      0.53096736	     -1.14580195	      4.62901367	    -18.89831942	     15.26759111	     15.26759111	     19.51898353	     -5.75166308	     -2.25251025	     29.28894965	     -5.77772056	      2.57986688	     26.23041353	     26.23041353	      3.76963696	    -12.89524551	      0.90271853	     -8.62141614	      3.23942062	      4.28238683	     45.81676110	    -16.61751969	     -6.84213611	     88.33108931	     44.83500582	      0.00000000	      0.00000000	    -12.44126321	     -8.72319523	      7.71252854	     34.70663298	     45.12522193	      0.00000000	      0.00000000
     28.39428571	     -3.75092609	     -4.53166952	      7.93836180	      0.95872668	      0.91500950	      0.52692927	     -1.61305038	      4.15712930	    -18.92227861	     15.35739391	     15.35739391	     19.46666705	     -5.42180662	     -2.15383962	     29.07735061	     -5.31901964	      2.91125936	     26.90645662	     26.90645662	      4.57867411	    -13.68314572	      1.69926515	     -8.45192486	      3.06449021	      4.59730755	     45.48240965	    -16.54553006	     -6.97969143	     87.02075136	     44.89042199	      0.00000000	      0.00000000	    -11.71077828	     -8.72622007	      7.29185907	     35.54112378	     45.20311041	      0.00000000	      0.00000000
     28.41271429	     -3.81777031	     -4.42128093	      7.74068469	      0.96053438	      0.91540716	      0.52284192	     -1.99680048	      3.68713089	    -18.94367006	     15.55936619	     15.55936619	     19.37135366	     -5.05958492	     -2.11890871	     28.82914268	     -4.95821876	      3.05146820	     27.48423660	     27.48423660	      5.42644877	    -14.20723098	      2.42657193	     -8.26890984	      2.98196662	      4.84638062	     45.18200758	    -16.47435834	     -7.01316102	     85.59212072	     44.94555492	      0.00000000	      0.00000000	    -10.98950679	     -8.67844811	      6.69699380	     36.45138234	     45.30126215	      0.00000000	      0.00000000
     28.43114286	     -3.88411332	     -4.38920088	      7.48378808	      0.96236544	      0.91593469	      0.51888566	     -2.35033165	      3.31789124	    -18.79322703	     15.75682755	     15.75682755	     19.12599805	     -4.93705719	     -2.06821765	     28.48138080	     -4.74707786	      3.02823455	     27.85459994	     27.85459994	      6.04583289	    -14.56825768	      2.27787526	     -8.16493171	      2.99329074	      4.90837892	     44.64403580	    -16.14520981	     -6.84769375	     85.19118587	     44.95150947	      0.00000000	      0.00000000	    -10.17349446	     -8.67363225	      6.58708361	     36.84954512	     45.32795405	      0.00000000	      0.00000000
     28.44957143	     -3.92192087	     -4.25015018	      7.14001119	      0.96403420	      0.91659392	      0.51482826	     -2.49884851	      2.64043361	    -18.96062900	     16.47798724	     16.47798724	     19.03424397	     -4.22099290	     -2.31915907	     28.15910826	     -4.39972643	      3.00626812	     28.43625597	     28.43625597	      7.58033896	    -14.80752275	      4.85440640	     -7.97059551	      2.85817886	      4.53550525	     45.04220958	    -15.40881369	     -6.54832128	     81.12294832	     45.10068992	      0.00000000	      0.00000000	    -10.31288140	     -8.43112696	      3.47379486	     39.09282937	     45.73497761	      0.00000000	      0.00000000
     28.46800000	     -3.91088593	     -4.22878549	      6.78147242	      0.96578984	      0.91740751	      0.51098640	     -2.68218571	      2.17097509	    -18.76243712	     17.13414916	     17.13414916	     18.75596158	     -4.05291603	     -2.41382014	     27.61243449	     -4.26405454	      2.81061961	     28.60792615	     28.60792615	      8.12282368	    -15.10445440	      4.74167706	     -7.93979284	      2.85133761	      4.81375551	     44.16922050	    -15.42099685	     -6.48315251	     80.19040318	     45.12693297	      0.00000000	      0.00000000	     -9.36202906	     -8.51688236	      3.20717199	     39.62927014	     45.78090194	      0.00000000	      0.00000000
     28.48642857	     -3.98533945	     -4.09648521	      6.40007076	      0.96725490	      0.91814606	      0.50693736	     -2.52442239	      1.38450440	    -18.86276469	     18.29311261	     18.29311261	     18.45884131	     -3.53934691	     -3.23653113	     27.09455961	     -3.97962378	      2.55838443	     28.67749300	     28.67749300	      8.81660622	    -15.31699835	      5.38274122	     -7.72962850	      2.78902568	      4.61462546	     44.15834405	    -14.87405240	     -6.59219232	     76.56918644	     45.25901624	      0.00000000	      0.00000000	     -8.99367387	     -8.47144476	      1.44956417	     41.14689266	     45.99586209	      0.00000000	      0.00000000
     28.50485714	     -3.96599110	     -4.01793575	      5.99719816	      0.96875739	      0.91902067	      0.50304169	     -2.31361414	      0.69512306	    -18.57142289	     19.67947677	     19.67947677	     18.16505009	     -3.63094026	     -3.60427440	     26.43040062	     -3.82976712	      2.13714947	     28.63778455	     28.63778455	      9.31182247	    -15.35796677	      5.29495215	     -7.69414289	      2.77812702	      4.91087114	     43.12565533	    -15.07822883	     -6.55486321	     75.20387686	     45.29971950	      0.00000000	      0.00000000	     -7.96028241	     -8.66289118	      1.08879455	     41.84740201	     46.05151119	      0.00000000	      0.00000000
